<?xml version="1.0" standalone="no"?><!DOCTYPE svg PUBLIC "-//W3C//DTD SVG 1.1//EN" "http://www.w3.org/Graphics/SVG/1.1/DTD/svg11.dtd"><svg t="1743852972621" class="icon" viewBox="0 0 1024 1024" version="1.1" xmlns="http://www.w3.org/2000/svg" p-id="37676" width="16" height="16" xmlns:xlink="http://www.w3.org/1999/xlink"><path d="M529.066667 524.8l241.066666-241.066667c8.533333-8.533333 8.533333-21.333333 0-29.866666s-21.333333-8.533333-29.866666 0L499.2 494.933333 258.133333 253.866667c-8.533333-8.533333-21.333333-8.533333-29.866666 0s-8.533333 21.333333 0 29.866666L469.333333 524.8 228.266667 765.866667c-8.533333 8.533333-8.533333 21.333333 0 29.866666 4.266667 4.266667 10.666667 6.4 14.933333 6.4s10.666667-2.133333 14.933333-6.4L499.2 554.666667l241.066667 241.066666c4.266667 4.266667 10.666667 6.4 14.933333 6.4s10.666667-2.133333 14.933333-6.4c8.533333-8.533333 8.533333-21.333333 0-29.866666L529.066667 524.8z" fill="#8a8a8a" p-id="37677"></path></svg>